Coordinates
version=1
nRows=15
nColumns=34
inDegrees=no

Units are S.I. units (second, meters, Newtons, ...)
If the header above contains a line with 'inDegrees', this indicates whether rotational values are in degrees (yes) or radians (no).

endheader
time	pelvis_tilt	pelvis_list	pelvis_rotation	pelvis_tx	pelvis_ty	pelvis_tz	hip_flexion_r	hip_adduction_r	hip_rotation_r	knee_angle_r	ankle_angle_r	subtalar_angle_r	mtp_angle_r	hip_flexion_l	hip_adduction_l	hip_rotation_l	knee_angle_l	ankle_angle_l	subtalar_angle_l	mtp_angle_l	lumbar_extension	lumbar_bending	lumbar_rotation	arm_flex_r	arm_add_r	arm_rot_r	elbow_flex_r	pro_sup_r	arm_flex_l	arm_add_l	arm_rot_l	elbow_flex_l	pro_sup_l
0	0.170758	0.05382	0.0683817	-0.228606	1.08901	-0.240296	0.250211	-0.0217366	-0.092442	0.0465227	-0.0799277	-0.182724	-0.0113108	-0.539286	0.048915	-0.261356	0.106983	0.232956	0.311151	-0.11022	-0.484323	-0.0693909	-0.143873	-0.234007	-0.144895	-0.171839	0.825413	2.07888	-0.0553563	-0.251925	-0.0384052	0.787312	2.0319
0.01	0.173713	0.0463555	0.0749229	-0.213689	1.09531	-0.240918	0.239803	-0.0136274	-0.095742	0.0488282	-0.114965	-0.197788	-0.0113986	-0.547144	0.0349531	-0.26172	0.121169	0.220012	0.305406	-0.110089	-0.484385	-0.0503965	-0.14082	-0.233404	-0.145883	-0.173221	0.817864	2.08533	-0.0611825	-0.244648	-0.0402387	0.773296	2.03211
0.02	0.175621	0.0391775	0.0802535	-0.198987	1.10102	-0.241512	0.231902	-0.00677487	-0.101866	0.0548115	-0.144208	-0.207433	-0.0114863	-0.550867	0.0214856	-0.262013	0.139814	0.203035	0.295787	-0.109957	-0.483663	-0.0321016	-0.136806	-0.232659	-0.147002	-0.175381	0.810682	2.09132	-0.0673374	-0.237132	-0.042784	0.760275	2.03443
0.03	0.176485	0.0322842	0.0843975	-0.184513	1.10619	-0.242067	0.226457	-0.001165	-0.110701	0.0643715	-0.167698	-0.211785	-0.011574	-0.550443	0.00850371	-0.26222	0.162934	0.182022	0.282296	-0.109825	-0.482165	-0.0145074	-0.13186	-0.231779	-0.148252	-0.178306	0.803897	2.09685	-0.0738304	-0.229389	-0.0460355	0.748277	2.03888
0.04	0.176319	0.0256796	0.0874337	-0.17028	1.11085	-0.24258	0.22331	0.00325486	-0.121897	0.0771985	-0.185583	-0.21126	-0.0116617	-0.545853	-0.00402679	-0.262295	0.190562	0.156978	0.264952	-0.109694	-0.479904	0.0023891	-0.126074	-0.230791	-0.149628	-0.181954	0.797604	2.10194	-0.0806892	-0.221467	-0.0499659	0.7374	2.04543
0.05	0.175154	0.0193727	0.0895233	-0.156303	1.11506	-0.243047	0.222165	0.00659538	-0.134827	0.0927154	-0.198167	-0.206651	-0.0117495	-0.537088	-0.0161769	-0.262152	0.222716	0.12793	0.24383	-0.109562	-0.476913	0.0186014	-0.119634	-0.229743	-0.151125	-0.186234	0.791979	2.1066	-0.0879609	-0.21346	-0.0545008	0.72782	2.05401
0.06	0.173053	0.0133735	0.0909226	-0.142591	1.11885	-0.243466	0.222592	0.0090344	-0.148639	0.110092	-0.205935	-0.199105	-0.0118372	-0.524184	-0.0280577	-0.261653	0.259341	0.094943	0.219092	-0.10943	-0.473242	0.0341603	-0.11282	-0.228709	-0.152739	-0.190987	0.787271	2.11086	-0.0957004	-0.205522	-0.0594891	0.719797	2.06441
0.07	0.170118	0.00768823	0.0919727	-0.129149	1.12227	-0.243841	0.224061	0.0108089	-0.162391	0.128329	-0.209525	-0.189994	-0.011925	-0.507261	-0.0398105	-0.260613	0.30026	0.0581401	0.190997	-0.109298	-0.468971	0.0491164	-0.105988	-0.227773	-0.154466	-0.195987	0.783767	2.11474	-0.10395	-0.197855	-0.0646827	0.713646	2.07621
0.08	0.166495	0.00231788	0.0930679	-0.115984	1.12536	-0.244176	0.225997	0.0121872	-0.175221	0.146391	-0.20967	-0.180718	-0.0120127	-0.486548	-0.0515813	-0.258807	0.345129	0.0177257	0.159901	-0.109166	-0.464208	0.0635346	-0.0995275	-0.227011	-0.156313	-0.200951	0.781736	2.11826	-0.112718	-0.190702	-0.0697351	0.709685	2.08879
0.09	0.162376	-0.00274146	0.094608	-0.103101	1.12816	-0.244483	0.227839	0.0134303	-0.186494	0.163347	-0.207117	-0.172499	-0.0121005	-0.462399	-0.063488	-0.25599	0.393418	-0.0259684	0.126247	-0.109034	-0.459094	0.0774818	-0.0938058	-0.226478	-0.158293	-0.205564	0.781376	2.12138	-0.121956	-0.184311	-0.0742258	0.708186	2.10138
0.1	0.157989	-0.00749511	0.0969467	-0.0905033	1.13071	-0.244774	0.229092	0.0147535	-0.19589	0.178488	-0.20256	-0.166229	-0.0121882	-0.435287	-0.0755882	-0.251928	0.444426	-0.0724161	0.090559	-0.108902	-0.453802	0.0910114	-0.0891169	-0.226188	-0.160431	-0.209515	0.78276	2.12402	-0.131554	-0.178913	-0.0777094	0.70931	2.11312
0.11	0.153589	-0.0119447	0.100344	-0.0781925	1.13305	-0.24506	0.229357	0.0162972	-0.203414	0.191385	-0.196591	-0.162374	-0.012276	-0.405791	-0.0878538	-0.246435	0.497314	-0.120816	0.0534306	-0.10877	-0.448528	0.104148	-0.085639	-0.226112	-0.162756	-0.212536	0.785814	2.12607	-0.141342	-0.174687	-0.0797819	0.713073	2.12324
0.12	0.149434	-0.0160815	0.104932	-0.0661665	1.13522	-0.24535	0.228347	0.0181135	-0.209328	0.201903	-0.189674	-0.16097	-0.0123637	-0.37456	-0.100158	-0.239407	0.551164	-0.170021	0.0155157	-0.108638	-0.44348	0.116877	-0.0834116	-0.226179	-0.165299	-0.21444	0.790319	2.12736	-0.151104	-0.171738	-0.08015	0.719318	2.13122
0.13	0.145765	-0.0198791	0.110696	-0.0544182	1.13726	-0.245649	0.225887	0.0201675	-0.214053	0.21016	-0.18214	-0.161674	-0.0124514	-0.342266	-0.112274	-0.230839	0.605046	-0.218517	-0.0224961	-0.108506	-0.438864	0.129131	-0.0823332	-0.22629	-0.16808	-0.215154	0.795936	2.12774	-0.160603	-0.170084	-0.0786856	0.727727	2.13685
0.14	0.14277	-0.0232864	0.117479	-0.0429374	1.13919	-0.245956	0.221906	0.0223518	-0.218045	0.216451	-0.174202	-0.163878	-0.0125392	-0.309561	-0.123892	-0.220839	0.658076	-0.264475	-0.0599162	-0.108374	-0.43486	0.140795	-0.0821822	-0.226329	-0.171105	-0.214731	0.802259	2.12709	-0.169609	-0.16965	-0.0754473	0.737859	2.1402
